HIERARCHY
ROOT hip
{
	OFFSET 0.000000 0.000000 0.000000 
	CHANNELS 6 Xposition Yposition Zposition Xrotation Zrotation Yrotation
	JOINT abdomen
	{
		OFFSET 0.000000 3.402643 0.000000 
		CHANNELS 3 Xrotation Zrotation Yrotation
		JOINT chest
		{
			OFFSET 0.000000 8.438565 -0.680529 
			CHANNELS 3 Xrotation Zrotation Yrotation
			JOINT neck
			{
				OFFSET 0.000000 10.207942 -0.272212 
				CHANNELS 3 Xrotation Zrotation Yrotation
				JOINT head
				{
					OFFSET 0.000000 3.130431 0.000000 
					CHANNELS 3 Xrotation Zrotation Yrotation
					End Site
					{
						OFFSET 0.000000 3.130435 0.000000 
					}
				}
			}
			JOINT lCollar
			{
				OFFSET 3.470700 6.669187 -0.816635 
				CHANNELS 3 Yrotation Zrotation Xrotation
				JOINT lShldr
				{
					OFFSET 3.198488 0.000000 0.000000 
					CHANNELS 3 Zrotation Yrotation Xrotation
					JOINT lForeArm
					{
						OFFSET 10.139888 0.000000 0.000000 
						CHANNELS 3 Yrotation Zrotation Xrotation
						JOINT lHand
						{
							OFFSET 8.370511 0.000000 0.000000 
							CHANNELS 3 Zrotation Yrotation Xrotation
							End Site
							{
								OFFSET 4.083176 0.000000 0.000000 
							}
						}
					}
				}
			}
			JOINT rCollar
			{
				OFFSET -3.470700 6.669187 -0.816635 
				CHANNELS 3 Yrotation Zrotation Xrotation
				JOINT rShldr
				{
					OFFSET -3.198488 0.000000 0.000000 
					CHANNELS 3 Zrotation Yrotation Xrotation
					JOINT rForeArm
					{
						OFFSET -10.139888 0.000000 0.000000 
						CHANNELS 3 Yrotation Zrotation Xrotation
						JOINT rHand
						{
							OFFSET -8.370511 0.000000 0.000000 
							CHANNELS 3 Zrotation Yrotation Xrotation
							End Site
							{
								OFFSET -4.083176 0.000000 0.000000 
							}
						}
					}
				}
			}
		}
	}
	JOINT lThigh
	{
		OFFSET 5.308129 -1.633274 1.361059 
		CHANNELS 3 Xrotation Zrotation Yrotation
		JOINT lShin
		{
			OFFSET -2.041588 -20.007561 0.000000 
			CHANNELS 3 Xrotation Zrotation Yrotation
			JOINT lFoot
			{
				OFFSET 0.000000 -19.190928 -1.224953 
				CHANNELS 3 Xrotation Yrotation Zrotation
				End Site
				{
					OFFSET 0.000000 -2.449906 4.627600 
				}
			}
		}
	}
	JOINT rThigh
	{
		OFFSET -5.308129 -1.633274 1.361059 
		CHANNELS 3 Xrotation Zrotation Yrotation
		JOINT rShin
		{
			OFFSET 2.041588 -20.007561 0.000000 
			CHANNELS 3 Xrotation Zrotation Yrotation
			JOINT rFoot
			{
				OFFSET 0.000000 -19.190928 -1.224953 
				CHANNELS 3 Xrotation Yrotation Zrotation
				End Site
				{
					OFFSET 0.000000 -2.449906 4.627600 
				}
			}
		}
	}
}
MOTION
Frames: 15
Frame Time: 0.033333
-0.921419 48.680130 1.064212 3.698087 -4.296871 -17.394426 0.000000 0.000000 0.000000 1.006487 0.853772 1.145581 -10.843797 2.830482 1.897042 16.932297 6.132166 -0.834717 -1.237182 -4.043394 2.554885 -57.727627 39.372494 -17.242052 -61.446369 3.852785 25.008814 0.380408 -5.084079 -3.409078 6.110191 10.081839 2.275963 32.875988 -23.437607 8.745999 59.041992 2.120506 24.336998 -0.692219 9.233274 -3.406217 14.162745 17.935434 18.171745 0.952125 -3.000872 11.698636 -9.571525 1.387139 -16.035625 -3.369009 -3.779109 -2.899516 10.032783 5.463988 -6.924779 -7.937200 -0.335173 4.447136 
-1.548473 48.633926 1.086086 3.424144 -4.852210 -18.565350 0.000000 0.000000 0.000000 1.113269 1.061763 0.959021 -11.430789 2.840589 1.672225 17.061178 6.825485 -0.815247 -1.764020 -4.162152 2.769809 -64.497833 38.775940 -17.693634 -65.380226 3.646543 21.596212 -1.988923 -4.820724 -3.241850 5.815346 10.662874 2.429077 36.116726 -25.066708 13.110219 61.404663 3.436416 25.452368 -1.570860 7.635296 -3.499098 15.344778 18.882565 19.526041 1.283754 -2.991959 11.198460 -9.912982 1.497019 -16.902617 -3.131533 -2.799585 -2.491336 10.872609 5.698801 -5.654110 -8.713161 -0.291864 3.584335 
-2.144931 48.586498 1.002158 3.788510 -4.294815 -20.695578 0.000000 0.000000 0.000000 0.889009 0.911720 1.032213 -12.064434 2.615140 2.268165 16.744358 7.128714 -0.422735 -1.800793 -4.304405 2.310134 -70.444130 38.056576 -17.227106 -68.755577 3.526845 20.815443 -2.241392 -3.329582 -3.275553 5.952634 10.717628 1.984796 39.108528 -27.200916 17.131536 63.724373 4.642624 24.289326 -0.287001 6.830939 -3.388584 15.735020 18.843987 19.950909 1.556679 -3.023636 12.000607 -10.011249 1.595901 -17.732666 -4.507025 -2.750835 -2.494574 12.801003 6.073449 -2.924564 -9.803314 -0.233563 2.467897 
-2.836862 48.546490 0.991978 3.285477 -4.370666 -22.422674 0.000000 0.000000 0.000000 1.084239 0.896484 0.974796 -11.974285 2.936783 2.444702 16.928865 6.650374 0.128361 -1.846082 -4.154591 2.720301 -74.542137 36.525223 -14.933082 -71.352615 3.114943 21.972340 -3.982934 -3.905480 -3.138254 5.718529 11.356275 2.375859 42.066124 -29.672319 19.500063 66.276016 4.897942 26.236574 -0.995092 6.867347 -3.443665 17.139395 19.175205 21.036274 1.937696 -2.798338 11.507594 -8.439591 1.376407 -18.768530 -4.340184 -2.145666 -2.206453 13.933055 6.183597 -1.279989 -10.584113 -0.171247 1.410084 
-3.571234 48.527233 0.968885 2.972074 -4.194985 -24.259083 0.000000 0.000000 0.000000 1.162260 0.953899 0.959570 -11.366966 2.798895 3.002097 17.003664 6.601192 0.610436 -2.316360 -4.544228 2.848116 -76.114258 35.670113 -11.386608 -74.131737 2.486709 24.936914 -4.864392 -3.738909 -3.096358 5.349164 11.192930 2.554613 45.646229 -31.540123 21.753578 67.289909 5.115074 27.352859 -0.088707 5.795884 -3.380237 18.092106 19.197823 21.390835 2.317678 -1.997110 10.921881 -5.662626 1.020383 -20.117487 -4.231631 -1.715970 -2.052106 14.752292 6.326862 0.739444 -11.239972 -0.038196 0.230590 
-4.241137 48.506405 0.962135 2.610310 -4.084989 -25.166521 0.000000 0.000000 0.000000 1.356795 1.034338 0.461347 -11.431174 2.350376 2.961699 18.124704 6.795094 1.317888 -2.823909 -4.485323 3.286722 -75.364021 34.159195 -4.983533 -76.921974 1.330899 29.270363 -5.996185 -3.486048 -3.036203 4.234726 11.120360 2.984529 47.873734 -33.050934 24.113253 68.412415 5.393013 27.966757 -0.153504 6.242037 -3.374801 18.339453 19.150799 20.765789 2.628977 -0.200029 9.835266 -1.261915 0.261136 -21.776064 -3.909882 -1.403910 -2.093553 15.351466 6.552620 1.814223 -11.793702 0.092904 -0.757746 
-4.806635 48.548725 1.005824 1.977000 -4.035845 -26.350029 0.000000 0.000000 0.000000 1.688555 1.089139 0.210938 -10.639069 2.721849 2.581243 18.953712 6.012815 1.757863 -3.175933 -4.165576 3.978043 -73.682571 32.330452 1.387857 -79.576790 0.920623 42.597527 0.553946 1.344796 -3.482280 3.663818 10.985166 3.668637 49.469482 -33.914097 25.988663 68.071236 5.717743 27.837683 -0.267383 7.017939 -3.376096 12.879742 19.883072 17.929546 13.641455 1.747037 13.931788 -0.396587 0.116681 -23.331821 -2.809817 -1.248849 -2.180103 14.932825 6.744497 3.090263 -11.810675 0.189611 -1.654943 
-5.464482 48.639561 0.971341 1.333999 -4.533370 -28.113607 0.000000 0.000000 0.000000 2.127774 1.231684 0.266129 -9.307051 3.540587 2.837476 19.308699 5.659922 2.198982 -3.039593 -2.965214 4.891231 -70.746086 29.569832 7.467839 -81.012985 0.052878 47.375130 5.874094 1.498602 -3.565717 3.495958 11.245979 4.566916 49.978092 -33.932758 28.255350 67.614403 6.141557 28.991430 0.112033 6.375088 -3.364508 5.308537 20.804485 14.932025 28.213106 3.583156 20.616028 0.001937 0.032865 -21.929518 -0.935410 -0.194909 -1.342715 13.145733 6.451341 3.666274 -11.051825 0.241489 -2.309343 
-5.901701 48.696712 1.007194 0.492200 -4.384947 -29.185877 0.000000 0.000000 0.000000 2.528109 1.247452 0.225402 -8.247794 3.559408 3.053118 19.698425 5.463691 2.472996 -3.019717 -2.980682 5.701482 -67.003044 26.031199 11.886333 -81.391434 -0.622696 47.601513 4.797180 -2.099534 -3.642587 3.182155 11.348807 5.393746 47.985683 -33.596531 32.567406 68.342339 7.079043 32.303726 -3.980065 3.775983 -3.660433 -0.371491 19.609310 12.191928 36.717285 4.793941 28.068130 1.532328 -0.243605 -18.606419 0.291839 -0.349385 -1.414854 12.638946 6.451473 5.039057 -10.924492 0.309799 -2.936019 
-6.235265 48.773682 1.101681 -0.088169 -4.224437 -30.158785 0.000000 0.000000 0.000000 2.821129 1.230765 0.256407 -6.993325 3.695557 3.160950 19.528500 5.365682 2.579928 -2.961885 -2.723483 6.286222 -64.458771 22.999094 14.685383 -81.514648 -1.168793 45.355511 2.359655 -5.062803 -3.547316 3.068233 11.566223 5.973121 46.918106 -32.031319 34.160660 65.787399 7.757143 33.566929 -3.087547 2.325095 -3.574275 -4.501997 18.787533 10.016144 41.966251 4.917591 23.856499 0.165498 0.018062 -14.837341 1.510701 -0.516616 -1.433063 11.568646 6.433455 6.230824 -10.482966 0.325713 -3.401106 
-6.517443 48.812908 1.156745 -0.172081 -3.928508 -30.577974 0.000000 0.000000 0.000000 2.908748 1.340998 0.177325 -6.403407 3.705651 3.063498 19.726679 5.687708 2.562403 -3.177002 -2.396546 6.498061 -62.514248 20.413176 16.039612 -81.694801 -1.574589 41.433575 -1.190567 -5.743014 -3.274009 2.900698 11.591847 6.163292 45.211136 -31.261120 35.347839 65.278023 8.028728 35.831268 -2.774272 2.648063 -3.565615 -7.019555 17.863182 8.260217 42.759106 4.385890 15.554236 -2.306626 0.306010 -13.425710 2.064331 -0.457943 -1.322640 10.865205 6.277041 5.987704 -10.406524 0.331217 -3.560015 
-6.692804 48.800068 1.261111 -0.113979 -3.765255 -30.444185 0.000000 0.000000 0.000000 2.966982 1.466612 -0.050348 -6.026445 3.999660 2.643234 19.770992 5.550608 2.679010 -3.573451 -1.653860 6.619702 -61.929729 18.463135 16.575727 -82.085152 -1.661473 40.599617 -2.537791 -4.138311 -3.230386 2.558314 11.717328 6.239950 42.911552 -30.315193 36.067799 64.872101 8.460464 35.605854 -1.798469 2.874954 -3.514937 -9.890820 16.343943 6.592533 42.276646 3.992574 13.017684 -3.622194 0.453576 -13.040331 2.056611 -0.418864 -1.359259 11.034032 6.285597 5.770031 -10.697103 0.375774 -3.692422 
-6.934999 48.782063 1.439190 -0.278884 -3.210649 -31.393059 0.000000 0.000000 0.000000 3.015962 1.425742 0.139888 -5.664941 3.704773 3.307758 19.652678 5.794155 2.748985 -3.185945 -1.832137 6.739799 -61.155697 17.667450 15.606762 -82.575050 -1.673594 41.440914 -1.563044 -3.378291 -3.302022 2.934520 11.178805 6.373497 41.801701 -29.838428 36.063084 64.573624 8.536417 38.378468 -3.425070 1.755260 -3.585558 -10.952386 14.396666 6.441465 39.280659 2.551296 14.598499 -4.592342 0.556509 -13.162403 1.741857 -0.787709 -1.262181 12.035438 5.942418 6.593058 -11.466482 0.397926 -3.818887 
-7.116235 48.747536 1.669734 -0.255435 -2.936777 -31.873030 0.000000 0.000000 0.000000 3.084302 1.453458 0.225551 -5.412761 3.830896 3.464957 19.290764 5.501341 2.786867 -3.055396 -1.666030 6.857420 -61.527287 17.140162 14.008926 -82.510910 -1.413446 42.364330 -0.634192 -2.669127 -3.375719 3.102747 11.147175 6.490816 40.640293 -29.556400 33.668137 64.071449 8.079246 32.642323 -0.701924 3.714720 -3.446075 -12.039222 12.702761 6.288678 35.327614 1.077339 16.284933 -5.515937 0.599438 -11.714101 1.634352 -1.021255 -1.365835 12.664297 5.975407 7.196981 -12.065847 0.439915 -4.031940 
-7.319380 48.673172 1.897644 0.279257 -2.413280 -32.209908 0.000000 0.000000 0.000000 2.928096 1.448331 0.275082 -5.825663 3.898347 3.651401 19.439505 5.305676 2.913238 -3.050744 -1.854203 6.545767 -61.594326 17.624760 12.280960 -82.780830 -1.158999 41.787273 0.689931 -2.032502 -3.460095 3.222881 11.294240 6.184254 39.267334 -29.437473 32.255623 64.235336 7.710411 31.575012 -1.573464 3.368243 -3.505424 -13.452549 11.255217 6.096438 30.438007 -0.655627 15.334504 -5.306859 0.450351 -9.636445 0.663168 -0.741611 -0.631257 13.822458 5.281572 6.764385 -13.079138 0.476446 -3.793977 
